HIERARCHY
ROOT Bip001_Pelvis
{
  OFFSET 34.4345 95.6767 -26.8758
  CHANNELS 6 Xposition Yposition Zposition Zrotation Xrotation Yrotation
  JOINT Bip001_Spine
  {
    OFFSET 1.4188e-005 10.2191 -0.0116013
    CHANNELS 3 Zrotation Xrotation Yrotation
    JOINT Bip001_L_Thigh
    {
      OFFSET 11.0458 -10.2192 0.0116197
      CHANNELS 3 Zrotation Xrotation Yrotation
      JOINT Bip001_L_Calf
      {
        OFFSET -0.707118 -44.0221 0.360014
        CHANNELS 3 Zrotation Xrotation Yrotation
        JOINT Bip001_L_Foot
        {
          OFFSET -0.651902 -40.5938 -3.56146
          CHANNELS 3 Zrotation Xrotation Yrotation
          JOINT Bip001_L_Toe0
          {
            OFFSET 0.0530839 -10.2181 13.1504
            CHANNELS 3 Zrotation Xrotation Yrotation
            End Site
            {
              OFFSET -1.02532e-005 0 7.55606
            }
          }
        }
      }
    }
    JOINT Bip001_R_Thigh
    {
      OFFSET -11.0458 -10.2191 0.0115893
      CHANNELS 3 Zrotation Xrotation Yrotation
      JOINT Bip001_R_Calf
      {
        OFFSET 0.706994 -44.0221 0.35984
        CHANNELS 3 Zrotation Xrotation Yrotation
        JOINT Bip001_R_Foot
        {
          OFFSET 0.651786 -40.5938 -3.5613
          CHANNELS 3 Zrotation Xrotation Yrotation
          JOINT Bip001_R_Toe0
          {
            OFFSET -0.0531479 -10.2181 13.1504
            CHANNELS 3 Zrotation Xrotation Yrotation
            End Site
            {
              OFFSET -1.02894e-005 0 7.55606
            }
          }
        }
      }
    }
    JOINT Bip001_Spine1
    {
      OFFSET 1.87041e-005 14.5736 1.08638
      CHANNELS 3 Zrotation Xrotation Yrotation
      JOINT Bip001_Spine2
      {
        OFFSET 2.24614e-005 14.5058 -1.69078
        CHANNELS 3 Zrotation Xrotation Yrotation
        JOINT Bip001_Neck
        {
          OFFSET 2.20278e-005 15.3945 -0.489414
          CHANNELS 3 Zrotation Xrotation Yrotation
          JOINT Bip001_L_Clavicle
          {
            OFFSET 6.06036 -0.000579998 0.00836775
            CHANNELS 3 Zrotation Xrotation Yrotation
            JOINT Bip001_L_UpperArm
            {
              OFFSET 11.5509 -0.0600302 0.00193952
              CHANNELS 3 Zrotation Xrotation Yrotation
              JOINT Bip001_L_Forearm
              {
                OFFSET 25.9523 0.0806089 -2.15551
                CHANNELS 3 Zrotation Xrotation Yrotation
                JOINT Bip001_L_Hand
                {
                  OFFSET 32.2475 0.153767 1.63968
                  CHANNELS 3 Zrotation Xrotation Yrotation
                  JOINT Bip001_L_Finger0
                  {
                    OFFSET 6.04639 -2.20976 5.90322
                    CHANNELS 3 Zrotation Xrotation Yrotation
                    End Site
                    {
                      OFFSET 4.22375 -1.43895 0.606485
                    }
                  }
                  JOINT Bip001_L_Finger1
                  {
                    OFFSET 11.0826 -0.704819 -0.198153
                    CHANNELS 3 Zrotation Xrotation Yrotation
                    End Site
                    {
                      OFFSET 6.20027 -0.397518 -0.0787166
                    }
                  }
                }
              }
            }
          }
          JOINT Bip001_R_Clavicle
          {
            OFFSET -6.06037 -0.000563197 0.00835105
            CHANNELS 3 Zrotation Xrotation Yrotation
            JOINT Bip001_R_UpperArm
            {
              OFFSET -11.5509 -0.0599978 0.00190698
              CHANNELS 3 Zrotation Xrotation Yrotation
              JOINT Bip001_R_Forearm
              {
                OFFSET -25.9523 0.0806822 -2.15589
                CHANNELS 3 Zrotation Xrotation Yrotation
                JOINT Bip001_R_Hand
                {
                  OFFSET -32.2475 0.153859 1.63989
                  CHANNELS 3 Zrotation Xrotation Yrotation
                  JOINT Bip001_R_Finger0
                  {
                    OFFSET -6.04641 -2.20976 5.90317
                    CHANNELS 3 Zrotation Xrotation Yrotation
                    End Site
                    {
                      OFFSET -4.22376 -1.43895 0.60647
                    }
                  }
                  JOINT Bip001_R_Finger1
                  {
                    OFFSET -11.0826 -0.704794 -0.198182
                    CHANNELS 3 Zrotation Xrotation Yrotation
                    End Site
                    {
                      OFFSET -6.20028 -0.397504 -0.0787333
                    }
                  }
                }
              }
            }
          }
          JOINT Bip001_Head
          {
            OFFSET 1.09673e-005 11.2744 2.05948
            CHANNELS 3 Zrotation Xrotation Yrotation
            End Site
            {
              OFFSET 2.89576e-005 20.8808 -2.77728e-005
            }
          }
        }
      }
    }
  }
}
MOTION
Frames:	6
Frame Time:	0.04
40.667 91.905 -30.5479 -3.82307 -7.2386 6.21122 -0.139073 3.18519 0.427419 9.38519 -11.3406 7.49972 -4.22116 36.6686 -1.94809 10.1924 -17.6066 1.08668 1.63232 -5.68078 -0.951309 -5.93451 -3.70369 -2.39165 3.14187 25.1868 0.165372 -11.0059 -8.73381 -10.2247 5.16613 -15.5922 4.98932 -0.305134 6.36922 0.864593 -0.302671 6.36922 0.864609 4.31573 -4.99756 -7.68453 -27.0583 4.31255 0.985528 -45.1502 29.5835 5.26032 25.0573 4.73063 -48.837 4.78174 2.41705 -7.72701 -0 -7.95139e-015 -0 -3.18055e-015 -6.36111e-015 -1.59028e-015 13.7905 13.4113 27.959 58.7237 -39.3077 29.2258 -22.4477 -11.2888 73.9178 -18.0325 -20.1944 -10.537 -0 0 6.36111e-015 -2.20695e-031 1.59028e-015 7.95139e-015 -15.7914 7.41114 -1.77177 
40.4958 92.5934 -30.7832 -4.23739 -6.48889 7.08546 -0.199032 3.15007 0.776264 9.56731 -11.5316 7.47536 -3.38281 34.4776 -3.57256 9.81306 -16.3175 0.955116 1.56516 -5.5749 -0.936196 -4.76962 -2.68866 -3.09003 2.10503 21.3874 0.0756053 -10.1797 -6.87276 -10.1846 5.03618 -15.2949 4.91151 -0.443762 6.29713 1.56781 -0.442759 6.29713 1.5675 1.73228 -4.43792 -7.97805 -26.113 3.96393 1.16245 -41.9128 30.2422 4.77912 25.1194 5.19185 -48.3795 4.48162 2.4295 -8.15337 4.41391e-031 -7.95139e-015 3.18055e-015 -3.18055e-015 -3.18056e-015 -0 13.0552 12.3685 29.6504 58.365 -31.3033 35.596 -24.0124 -22.7825 62.1583 -26.5552 -14.4804 -13.8215 -3.18055e-015 -1.59028e-015 -0 -3.18055e-015 -1.59028e-015 3.18055e-015 -15.733 9.11918 -2.48764 
40.2203 93.3259 -31.1743 -4.8695 -5.31835 7.9424 -0.386001 3.06535 0.950903 10.1655 -12.0837 6.73254 -3.36275 31.998 -3.96045 8.99219 -15.1236 0.764391 1.18708 -5.13816 -0.685531 -3.32441 -1.97633 -2.83355 1.53826 16.9982 -0.237956 -9.44436 -4.46101 -10.7542 4.8365 -14.8241 4.77728 -0.793646 6.12384 1.91477 -0.810013 6.12394 1.91965 -0.2057 -2.7383 -7.41423 -24.0002 2.68817 0.837059 -38.9339 32.3105 3.47241 24.5473 4.98137 -47.887 4.37495 2.33468 -7.39877 1.27222e-014 4.77083e-015 -0 9.54166e-015 7.95139e-015 3.18055e-015 14.2539 10.2321 28.5369 71.7087 -43.9805 47.0415 -14.6973 -27.8975 61.5596 -8.64287 -15.091 -14.0403 -1.27222e-014 0 3.18055e-015 -9.54166e-015 0 3.18055e-015 -14.2055 9.0544 -2.93218 
40.4342 94.0176 -31.6 -4.13529 -4.07619 8.43344 -0.877724 2.91296 0.725743 8.78574 -11.6474 6.61145 -2.14232 28.12 -4.37082 9.0595 -12.6462 0.56256 1.49274 -5.48409 -1.1479 -3.59271 -1.45778 -3.62045 0.917635 13.4788 -0.119343 -8.47883 -2.89046 -9.98857 4.62308 -14.2976 4.6071 -1.80214 5.81433 1.49843 -1.79892 5.81426 1.499 0.00498875 -0.393228 -6.77861 -22.8232 0.32977 0.948668 -38.5463 33.5359 3.42525 23.8538 5.00715 -47.35 4.39236 2.69111 -6.9142 -3.18055e-015 3.18055e-015 -0 -6.36111e-015 3.18056e-015 -0 15.3583 7.61744 25.9169 45.9819 -39.3967 25.9413 0.84972 -40.5873 60.6733 -10.6451 -17.1382 -14.6852 -9.54166e-015 3.18055e-015 3.18055e-015 -6.36111e-015 -1.59028e-015 3.18055e-015 -13.4295 7.38667 -2.74471 
40.4464 94.6571 -31.9656 -4.07198 -3.33896 7.51603 -0.831123 2.71728 0.547557 8.55903 -10.4957 8.27746 -1.83385 24.7802 -4.89395 7.51231 -11.7706 0.435376 1.24862 -4.72043 -1.16368 -3.59355 -0.251098 -3.42839 0.420217 8.95753 0.133804 -7.55337 -0.854925 -9.1288 4.35561 -13.6477 4.42771 -1.68694 5.42636 1.13849 -1.6843 5.42647 1.13688 0.144115 0.259231 -6.36418 -24.2215 -0.223793 0.586284 -38.5301 33.7061 5.48964 24.0215 5.80889 -47.2769 4.18665 2.56707 -7.32928 6.36111e-015 -3.18055e-015 3.18055e-015 9.54166e-015 -9.54167e-015 -0 13.7 5.64198 23.0216 29.0921 -23.4884 11.4863 -1.83 -41.67 52.881 -9.2453 -17.0384 -16.2166 3.18055e-015 -1.59028e-015 7.95139e-016 3.18055e-015 -7.95139e-016 7.95139e-016 -14.3074 7.48996 -2.01387 
40.2664 95.1698 -32.3319 -4.06808 -2.48758 5.84319 -0.80655 2.69575 0.304701 8.78301 -9.41367 9.84682 -2.42271 21.3468 -4.51587 6.73099 -10.582 0.3341 1.20924 -4.69154 -0.967144 -3.47225 0.369565 -2.78543 -0.0359311 4.68061 0.506595 -6.68926 1.12656 -8.27073 4.10402 -13.0363 4.27551 -1.63022 5.38689 0.648375 -1.63047 5.38687 0.64845 -2.11217 -1.33068 -4.99195 -23.3074 1.83234 0.436661 -37.9235 35.5956 6.00969 24.7428 6.119 -45.6066 3.84421 1.49422 -7.74163 1.27222e-014 -3.18055e-015 -1.59028e-015 6.36111e-015 -3.18056e-015 -1.59028e-015 15.5988 7.58112 24.0489 20.0938 -7.2639 1.02073 -16.5438 -39.8389 38.8728 4.93996 -20.8948 -10.3188 3.18055e-015 -4.77083e-015 -0 3.18055e-015 -9.54167e-015 -0 -11.8662 8.10143 -1.97299 
